<?xml version="1.0" standalone="no"?>
<!DOCTYPE svg PUBLIC "-//W3C//DTD SVG 20010904//EN"
 "http://www.w3.org/TR/2001/REC-SVG-20010904/DTD/svg10.dtd">
<svg version="1.0" xmlns="http://www.w3.org/2000/svg"
 width="601.000000pt" height="601.000000pt" viewBox="0 0 601.000000 601.000000"
 preserveAspectRatio="xMidYMid meet">
<metadata>
Created by potrace 1.14, written by Peter Selinger 2001-2017
</metadata>
<g transform="translate(0.000000,601.000000) scale(0.100000,-0.100000)"
fill="#000000" stroke="none">
<path d="M0 3005 l0 -3005 3005 0 3005 0 0 3005 0 3005 -3005 0 -3005 0 0
-3005z m3203 2611 c45 -18 84 -67 123 -153 37 -81 103 -273 130 -380 10 -39
22 -69 26 -67 4 3 5 -10 2 -28 -5 -26 -3 -30 6 -18 9 12 11 7 6 -25 -3 -24 -2
-35 3 -26 6 9 11 1 16 -27 4 -23 3 -47 -1 -53 -4 -7 -3 -9 4 -5 13 8 28 -57
16 -75 -4 -7 -3 -10 2 -6 6 3 24 -54 43 -131 70 -290 149 -491 246 -627 58
-82 157 -173 230 -211 147 -78 438 -144 848 -194 332 -40 514 -83 647 -150 62
-32 136 -99 151 -137 21 -55 3 -150 -37 -190 -13 -13 -24 -28 -24 -32 0 -14
-36 -41 -45 -34 -4 5 -5 3 -2 -4 14 -23 -100 -112 -468 -370 -182 -127 -211
-149 -290 -217 -44 -38 -79 -73 -77 -78 1 -5 -2 -7 -7 -3 -6 3 -18 -6 -27 -20
-9 -14 -22 -25 -29 -25 -6 0 -20 -10 -31 -22 -19 -22 -19 -23 1 -8 19 14 19
14 6 -2 -7 -10 -17 -18 -22 -18 -5 0 -40 -32 -77 -71 -174 -185 -206 -284
-206 -634 0 -176 4 -247 22 -355 36 -227 74 -600 69 -669 -5 -70 -23 -102 -78
-139 -114 -79 -479 70 -984 403 -128 84 -271 150 -383 176 -62 14 -222 20
-222 8 0 -5 -24 -8 -52 -7 -59 2 -210 -31 -202 -44 3 -4 -2 -5 -10 -2 -9 3
-58 -7 -108 -22 -52 -16 -84 -30 -73 -32 11 -3 -15 -15 -60 -28 -170 -52 -274
-89 -385 -137 -226 -97 -324 -123 -401 -106 -86 20 -138 74 -164 177 -17 64
-14 125 15 242 11 41 29 122 40 180 12 58 40 177 61 265 51 208 69 319 69 430
-1 129 -23 236 -66 325 -43 86 -112 182 -125 174 -5 -3 -8 -2 -7 3 3 10 -151
163 -164 163 -5 0 -7 4 -3 9 3 5 -8 18 -25 27 -16 10 -30 22 -30 26 0 4 -5 8
-11 8 -7 0 -32 21 -58 46 -25 26 -92 88 -149 138 -93 82 -259 266 -415 459
-71 87 -108 163 -114 237 -4 46 -1 61 19 90 38 58 92 77 308 110 107 16 308
43 445 60 348 42 483 65 592 102 139 46 273 132 352 227 89 106 317 484 471
781 155 297 330 557 433 641 71 58 76 61 114 75 49 17 76 17 116 0z"/>
<path d="M2258 3521 c-26 -11 -69 -35 -95 -54 -48 -35 -112 -97 -101 -97 4 0
34 13 68 29 75 36 182 55 267 48 55 -4 63 -2 63 12 0 19 -32 52 -67 70 -31 16
-81 13 -135 -8z"/>
<path d="M3655 3456 c-17 -7 -36 -20 -44 -29 -16 -20 -16 -20 79 -37 70 -13
140 -44 189 -85 55 -47 33 -8 -35 60 -90 90 -138 113 -189 91z"/>
<path d="M2295 3264 c-11 -2 -43 -9 -72 -15 -133 -26 -220 -190 -178 -334 22
-78 105 -163 184 -188 149 -48 290 2 361 127 58 101 34 242 -56 328 -61 58
-172 96 -239 82z m-6 -49 c42 -21 57 -65 37 -108 -35 -72 -138 -99 -195 -51
-94 79 45 218 158 159z"/>
<path d="M3534 3185 c-61 -19 -95 -40 -130 -77 -130 -137 -84 -336 98 -429 53
-27 160 -37 220 -20 61 17 132 72 164 127 39 66 45 175 14 256 -25 66 -91 132
-149 148 -49 13 -167 11 -217 -5z m53 -57 c24 -27 23 -90 -3 -125 -23 -32 -97
-73 -132 -73 -13 0 -37 13 -53 29 -41 41 -39 78 9 130 59 66 138 84 179 39z"/>
<path d="M2153 2422 c30 -33 106 -60 274 -96 188 -41 305 -53 676 -66 349 -13
518 -12 537 0 10 7 -10 8 -65 4 -86 -7 -743 20 -914 37 -191 19 -415 72 -484
115 -34 22 -39 23 -24 6z"/>
<path d="M3822 2401 c-18 -15 -64 -45 -102 -66 -38 -21 -67 -42 -64 -46 3 -5
17 0 32 10 15 10 47 30 72 44 25 14 58 39 74 56 37 38 32 39 -12 2z"/>
<path d="M2415 2258 c12 -37 74 -156 118 -228 113 -181 221 -287 330 -324 27
-9 80 -16 125 -16 254 0 470 163 630 472 49 96 51 101 20 66 -40 -45 -128 -89
-245 -124 -72 -21 -116 -27 -239 -31 -316 -11 -592 55 -706 169 -33 33 -39 36
-33 16z"/>
</g>
</svg>
